<mxfile host="Electron" modified="2023-12-30T21:58:32.420Z" agent="Mozilla/5.0 (Windows NT 10.0; Win64; x64) AppleWebKit/537.36 (KHTML, like Gecko) draw.io/22.1.16 Chrome/120.0.6099.109 Electron/28.1.0 Safari/537.36" etag="DU6U0tpUQ4IsgGhivPR2" version="22.1.16" type="device">
  <diagram id="C5RBs43oDa-KdzZeNtuy" name="Page-1">
    <mxGraphModel dx="2025" dy="834" grid="0" gridSize="10" guides="1" tooltips="1" connect="1" arrows="1" fold="1" page="1" pageScale="1" pageWidth="827" pageHeight="1169" math="0" shadow="0">
      <root>
        <mxCell id="WIyWlLk6GJQsqaUBKTNV-0" />
        <mxCell id="WIyWlLk6GJQsqaUBKTNV-1" parent="WIyWlLk6GJQsqaUBKTNV-0" />
        <mxCell id="qfkqd2oVbEpKfrebpLgS-9" style="edgeStyle=orthogonalEdgeStyle;rounded=0;orthogonalLoop=1;jettySize=auto;html=1;" edge="1" parent="WIyWlLk6GJQsqaUBKTNV-1" source="WIyWlLk6GJQsqaUBKTNV-3" target="qfkqd2oVbEpKfrebpLgS-0">
          <mxGeometry relative="1" as="geometry" />
        </mxCell>
        <mxCell id="WIyWlLk6GJQsqaUBKTNV-3" value="Start" style="rounded=1;whiteSpace=wrap;html=1;fontSize=12;glass=0;strokeWidth=1;shadow=0;" parent="WIyWlLk6GJQsqaUBKTNV-1" vertex="1">
          <mxGeometry x="323" y="12" width="120" height="40" as="geometry" />
        </mxCell>
        <mxCell id="qfkqd2oVbEpKfrebpLgS-10" style="edgeStyle=orthogonalEdgeStyle;rounded=0;orthogonalLoop=1;jettySize=auto;html=1;entryX=0.5;entryY=0;entryDx=0;entryDy=0;" edge="1" parent="WIyWlLk6GJQsqaUBKTNV-1" source="qfkqd2oVbEpKfrebpLgS-0" target="qfkqd2oVbEpKfrebpLgS-1">
          <mxGeometry relative="1" as="geometry" />
        </mxCell>
        <mxCell id="qfkqd2oVbEpKfrebpLgS-0" value="Generate a random word" style="rounded=1;whiteSpace=wrap;html=1;fontSize=12;glass=0;strokeWidth=1;shadow=0;fillColor=default;" vertex="1" parent="WIyWlLk6GJQsqaUBKTNV-1">
          <mxGeometry x="323" y="81" width="120" height="31" as="geometry" />
        </mxCell>
        <mxCell id="qfkqd2oVbEpKfrebpLgS-11" style="edgeStyle=orthogonalEdgeStyle;rounded=0;orthogonalLoop=1;jettySize=auto;html=1;entryX=0.5;entryY=0;entryDx=0;entryDy=0;" edge="1" parent="WIyWlLk6GJQsqaUBKTNV-1" source="qfkqd2oVbEpKfrebpLgS-1" target="qfkqd2oVbEpKfrebpLgS-2">
          <mxGeometry relative="1" as="geometry" />
        </mxCell>
        <mxCell id="qfkqd2oVbEpKfrebpLgS-1" value="Generate many blanks as the letters in the word" style="rounded=1;whiteSpace=wrap;html=1;fontSize=12;glass=0;strokeWidth=1;shadow=0;" vertex="1" parent="WIyWlLk6GJQsqaUBKTNV-1">
          <mxGeometry x="323" y="143" width="120" height="40" as="geometry" />
        </mxCell>
        <mxCell id="qfkqd2oVbEpKfrebpLgS-12" style="edgeStyle=orthogonalEdgeStyle;rounded=0;orthogonalLoop=1;jettySize=auto;html=1;entryX=0.5;entryY=0;entryDx=0;entryDy=0;" edge="1" parent="WIyWlLk6GJQsqaUBKTNV-1" source="qfkqd2oVbEpKfrebpLgS-2" target="qfkqd2oVbEpKfrebpLgS-3">
          <mxGeometry relative="1" as="geometry" />
        </mxCell>
        <mxCell id="qfkqd2oVbEpKfrebpLgS-19" style="edgeStyle=orthogonalEdgeStyle;rounded=0;orthogonalLoop=1;jettySize=auto;html=1;entryX=0;entryY=0.5;entryDx=0;entryDy=0;" edge="1" parent="WIyWlLk6GJQsqaUBKTNV-1" source="qfkqd2oVbEpKfrebpLgS-2" target="qfkqd2oVbEpKfrebpLgS-7">
          <mxGeometry relative="1" as="geometry" />
        </mxCell>
        <mxCell id="qfkqd2oVbEpKfrebpLgS-30" value="No" style="edgeLabel;html=1;align=center;verticalAlign=middle;resizable=0;points=[];" vertex="1" connectable="0" parent="qfkqd2oVbEpKfrebpLgS-19">
          <mxGeometry x="0.9345" relative="1" as="geometry">
            <mxPoint x="1" y="1" as="offset" />
          </mxGeometry>
        </mxCell>
        <mxCell id="qfkqd2oVbEpKfrebpLgS-22" style="edgeStyle=orthogonalEdgeStyle;rounded=0;orthogonalLoop=1;jettySize=auto;html=1;entryX=1;entryY=0.5;entryDx=0;entryDy=0;" edge="1" parent="WIyWlLk6GJQsqaUBKTNV-1" source="qfkqd2oVbEpKfrebpLgS-2" target="qfkqd2oVbEpKfrebpLgS-6">
          <mxGeometry relative="1" as="geometry" />
        </mxCell>
        <mxCell id="qfkqd2oVbEpKfrebpLgS-31" value="NO" style="edgeLabel;html=1;align=center;verticalAlign=middle;resizable=0;points=[];" vertex="1" connectable="0" parent="qfkqd2oVbEpKfrebpLgS-22">
          <mxGeometry x="0.953" y="-1" relative="1" as="geometry">
            <mxPoint as="offset" />
          </mxGeometry>
        </mxCell>
        <mxCell id="qfkqd2oVbEpKfrebpLgS-2" value="Ask the user to guess a letter" style="rounded=1;whiteSpace=wrap;html=1;fontSize=12;glass=0;strokeWidth=1;shadow=0;" vertex="1" parent="WIyWlLk6GJQsqaUBKTNV-1">
          <mxGeometry x="323" y="216" width="120" height="40" as="geometry" />
        </mxCell>
        <mxCell id="qfkqd2oVbEpKfrebpLgS-15" style="edgeStyle=orthogonalEdgeStyle;rounded=0;orthogonalLoop=1;jettySize=auto;html=1;" edge="1" parent="WIyWlLk6GJQsqaUBKTNV-1" source="qfkqd2oVbEpKfrebpLgS-3" target="qfkqd2oVbEpKfrebpLgS-4">
          <mxGeometry relative="1" as="geometry" />
        </mxCell>
        <mxCell id="qfkqd2oVbEpKfrebpLgS-27" value="No" style="edgeLabel;html=1;align=center;verticalAlign=middle;resizable=0;points=[];" vertex="1" connectable="0" parent="qfkqd2oVbEpKfrebpLgS-15">
          <mxGeometry x="0.3333" y="1" relative="1" as="geometry">
            <mxPoint as="offset" />
          </mxGeometry>
        </mxCell>
        <mxCell id="qfkqd2oVbEpKfrebpLgS-16" style="edgeStyle=orthogonalEdgeStyle;rounded=0;orthogonalLoop=1;jettySize=auto;html=1;entryX=0.5;entryY=0;entryDx=0;entryDy=0;" edge="1" parent="WIyWlLk6GJQsqaUBKTNV-1" source="qfkqd2oVbEpKfrebpLgS-3" target="qfkqd2oVbEpKfrebpLgS-5">
          <mxGeometry relative="1" as="geometry" />
        </mxCell>
        <mxCell id="qfkqd2oVbEpKfrebpLgS-26" value="Yes" style="edgeLabel;html=1;align=center;verticalAlign=middle;resizable=0;points=[];" vertex="1" connectable="0" parent="qfkqd2oVbEpKfrebpLgS-16">
          <mxGeometry x="0.3446" y="-1" relative="1" as="geometry">
            <mxPoint as="offset" />
          </mxGeometry>
        </mxCell>
        <mxCell id="qfkqd2oVbEpKfrebpLgS-3" value="&lt;div style=&quot;line-height: 120%;&quot;&gt;&lt;span style=&quot;background-color: initial;&quot;&gt;&lt;font style=&quot;font-size: 11px;&quot;&gt;Is the guessed letter in the word&lt;/font&gt;&lt;/span&gt;&lt;/div&gt;" style="rhombus;whiteSpace=wrap;html=1;align=center;" vertex="1" parent="WIyWlLk6GJQsqaUBKTNV-1">
          <mxGeometry x="318.5" y="278" width="129" height="107" as="geometry" />
        </mxCell>
        <mxCell id="qfkqd2oVbEpKfrebpLgS-18" style="edgeStyle=orthogonalEdgeStyle;rounded=0;orthogonalLoop=1;jettySize=auto;html=1;entryX=0.5;entryY=0;entryDx=0;entryDy=0;" edge="1" parent="WIyWlLk6GJQsqaUBKTNV-1" source="qfkqd2oVbEpKfrebpLgS-4" target="qfkqd2oVbEpKfrebpLgS-6">
          <mxGeometry relative="1" as="geometry" />
        </mxCell>
        <mxCell id="qfkqd2oVbEpKfrebpLgS-4" value="Lose a life" style="rounded=1;whiteSpace=wrap;html=1;fontSize=12;glass=0;strokeWidth=1;shadow=0;" vertex="1" parent="WIyWlLk6GJQsqaUBKTNV-1">
          <mxGeometry x="472" y="430" width="120" height="40" as="geometry" />
        </mxCell>
        <mxCell id="qfkqd2oVbEpKfrebpLgS-17" style="edgeStyle=orthogonalEdgeStyle;rounded=0;orthogonalLoop=1;jettySize=auto;html=1;entryX=0.5;entryY=0;entryDx=0;entryDy=0;" edge="1" parent="WIyWlLk6GJQsqaUBKTNV-1" source="qfkqd2oVbEpKfrebpLgS-5" target="qfkqd2oVbEpKfrebpLgS-7">
          <mxGeometry relative="1" as="geometry" />
        </mxCell>
        <mxCell id="qfkqd2oVbEpKfrebpLgS-5" value="Replace all the blanks with letter" style="rounded=1;whiteSpace=wrap;html=1;fontSize=12;glass=0;strokeWidth=1;shadow=0;" vertex="1" parent="WIyWlLk6GJQsqaUBKTNV-1">
          <mxGeometry x="178" y="428" width="120" height="40" as="geometry" />
        </mxCell>
        <mxCell id="qfkqd2oVbEpKfrebpLgS-25" style="edgeStyle=orthogonalEdgeStyle;rounded=0;orthogonalLoop=1;jettySize=auto;html=1;exitX=0.5;exitY=1;exitDx=0;exitDy=0;entryX=1;entryY=0.5;entryDx=0;entryDy=0;" edge="1" parent="WIyWlLk6GJQsqaUBKTNV-1" source="qfkqd2oVbEpKfrebpLgS-6" target="qfkqd2oVbEpKfrebpLgS-8">
          <mxGeometry relative="1" as="geometry" />
        </mxCell>
        <mxCell id="qfkqd2oVbEpKfrebpLgS-29" value="Yes" style="edgeLabel;html=1;align=center;verticalAlign=middle;resizable=0;points=[];" vertex="1" connectable="0" parent="qfkqd2oVbEpKfrebpLgS-25">
          <mxGeometry x="-0.5862" relative="1" as="geometry">
            <mxPoint as="offset" />
          </mxGeometry>
        </mxCell>
        <mxCell id="qfkqd2oVbEpKfrebpLgS-6" value="&lt;div style=&quot;line-height: 120%;&quot;&gt;&lt;span style=&quot;font-size: 11px;&quot;&gt;Have they run out of lfe?&lt;/span&gt;&lt;/div&gt;" style="rhombus;whiteSpace=wrap;html=1;align=center;" vertex="1" parent="WIyWlLk6GJQsqaUBKTNV-1">
          <mxGeometry x="467.5" y="564" width="129" height="107" as="geometry" />
        </mxCell>
        <mxCell id="qfkqd2oVbEpKfrebpLgS-23" style="edgeStyle=orthogonalEdgeStyle;rounded=0;orthogonalLoop=1;jettySize=auto;html=1;entryX=0;entryY=0.5;entryDx=0;entryDy=0;" edge="1" parent="WIyWlLk6GJQsqaUBKTNV-1" source="qfkqd2oVbEpKfrebpLgS-7" target="qfkqd2oVbEpKfrebpLgS-8">
          <mxGeometry relative="1" as="geometry" />
        </mxCell>
        <mxCell id="qfkqd2oVbEpKfrebpLgS-28" value="Yes" style="edgeLabel;html=1;align=center;verticalAlign=middle;resizable=0;points=[];" vertex="1" connectable="0" parent="qfkqd2oVbEpKfrebpLgS-23">
          <mxGeometry x="-0.3177" y="-2" relative="1" as="geometry">
            <mxPoint as="offset" />
          </mxGeometry>
        </mxCell>
        <mxCell id="qfkqd2oVbEpKfrebpLgS-7" value="&lt;div style=&quot;line-height: 120%;&quot;&gt;&lt;span style=&quot;font-size: 11px;&quot;&gt;Are all the blanks filled?&lt;/span&gt;&lt;/div&gt;" style="rhombus;whiteSpace=wrap;html=1;align=center;" vertex="1" parent="WIyWlLk6GJQsqaUBKTNV-1">
          <mxGeometry x="173.5" y="558" width="129" height="107" as="geometry" />
        </mxCell>
        <mxCell id="qfkqd2oVbEpKfrebpLgS-8" value="Game Over" style="rounded=1;whiteSpace=wrap;html=1;fontSize=12;glass=0;strokeWidth=1;shadow=0;" vertex="1" parent="WIyWlLk6GJQsqaUBKTNV-1">
          <mxGeometry x="302.5" y="730" width="120" height="40" as="geometry" />
        </mxCell>
      </root>
    </mxGraphModel>
  </diagram>
</mxfile>
